<?xml version="1.0" encoding="UTF-8"?>
<svg width="24px" height="29px" viewBox="0 0 24 29" version="1.1" xmlns="http://www.w3.org/2000/svg" xmlns:xlink="http://www.w3.org/1999/xlink">
    <!-- Generator: Sketch 46.2 (44496) - http://www.bohemiancoding.com/sketch -->
    <title>syncmethod_csvicon</title>
    <desc>Created with Sketch.</desc>
    <defs></defs>
    <g id="Styleguide" stroke="none" stroke-width="1" fill="none" fill-rule="evenodd">
        <g id="Sync-Method" transform="translate(-751.000000, -351.000000)" fill="#FFFFFF">
            <g id="syncmethod_csvicon" transform="translate(750.000000, 350.000000)">
                <path d="M16.6,9.4 L16.6,2.2 L23.8,9.4 L16.6,9.4 Z M20.7748,17.3728 L18.9748,23.3728 C18.898,23.626 18.6652,23.8 18.4,23.8 C18.1348,23.8 17.902,23.626 17.8252,23.3728 L16.0252,17.3728 C15.9292,17.0548 16.1092,16.7212 16.4272,16.6264 C16.744,16.5304 17.0788,16.7092 17.1736,17.0284 L18.4,21.112 L19.6252,17.0284 C19.72,16.7092 20.0572,16.5316 20.3716,16.6264 C20.6896,16.7212 20.8708,17.0548 20.7748,17.3728 L20.7748,17.3728 Z M12.4,23.8 C11.2972,23.8 10.3804,22.8976 10.3132,21.7444 C10.2928,21.4144 10.5448,21.13 10.8772,21.1108 C11.2048,21.0868 11.4916,21.3436 11.5108,21.6748 C11.5408,22.1932 11.932,22.6 12.4,22.6 C12.8896,22.6 13.288,22.1548 13.288,21.6076 C13.288,20.8972 12.8656,20.956 12.2344,20.7784 C10.9264,20.5324 10.3096,19.8688 10.3096,18.7912 C10.3096,17.5816 11.2468,16.6 12.4,16.6 C13.5004,16.6 14.4172,17.5012 14.4844,18.6532 C14.5048,18.9832 14.2528,19.2676 13.9204,19.2868 C13.5916,19.3216 13.306,19.054 13.2868,18.7228 C13.2568,18.2056 12.8668,17.8 12.4,17.8 C11.9092,17.8 11.5096,18.244 11.5096,18.79 C11.5096,19.3252 11.7844,19.4704 12.364,19.5784 C13.6228,19.8136 14.4892,20.2924 14.4892,21.6064 C14.488,22.8172 13.552,23.8 12.4,23.8 L12.4,23.8 Z M6.892,22.6 C7.2556,22.6 7.66,22.522 7.8616,21.5848 C7.9324,21.2596 8.2576,21.064 8.5756,21.124 C8.8984,21.1948 9.1048,21.5128 9.0364,21.838 C8.6848,23.4604 7.6768,23.8 6.892,23.8 C4.6,23.8 4.6,21.3688 4.6,20.2 C4.6,19.0312 4.6,16.5988 6.892,16.5988 C7.6768,16.5988 8.686,16.9384 9.0352,18.5608 C9.1048,18.886 8.8984,19.204 8.5744,19.2748 C8.2468,19.3396 7.9312,19.138 7.8604,18.814 C7.66,17.878 7.2544,17.7988 6.8908,17.7988 C6.2728,17.7988 5.8,17.9752 5.8,20.2 C5.8,22.4236 6.2728,22.6 6.892,22.6 L6.892,22.6 Z M24.8248,8.3764 L17.6248,1.1764 C17.512,1.0636 17.3596,1 17.2,1 L1.6,1 C1.27,1 1,1.2688 1,1.6 L1,29.2 C1,29.5312 1.27,29.8 1.6,29.8 L24.4,29.8 C24.7312,29.8 25,29.5312 25,29.2 L25,8.8 C25,8.6404 24.9364,8.488 24.8248,8.3764 L24.8248,8.3764 Z" id="Page-1"></path>
            </g>
        </g>
    </g>
</svg>