<?xml version="1.0" encoding="UTF-8"?>
<svg width="25px" height="30px" viewBox="0 0 25 30" version="1.1" xmlns="http://www.w3.org/2000/svg" xmlns:xlink="http://www.w3.org/1999/xlink">
    <!-- Generator: Sketch 46.2 (44496) - http://www.bohemiancoding.com/sketch -->
    <title>Page 1</title>
    <desc>Created with Sketch.</desc>
    <defs></defs>
    <g id="Demo-Screens" stroke="none" stroke-width="1" fill="none" fill-rule="evenodd">
        <g id="CSV-Upload" transform="translate(-706.000000, -291.000000)" fill="#4A4A4A">
            <path d="M722.25,299.75 L722.25,292.25 L729.75,299.75 L722.25,299.75 Z M726.59875,308.055 L724.72375,314.305 C724.64375,314.56875 724.40125,314.75 724.125,314.75 C723.84875,314.75 723.60625,314.56875 723.52625,314.305 L721.65125,308.055 C721.55125,307.72375 721.73875,307.37625 722.07,307.2775 C722.4,307.1775 722.74875,307.36375 722.8475,307.69625 L724.125,311.95 L725.40125,307.69625 C725.5,307.36375 725.85125,307.17875 726.17875,307.2775 C726.51,307.37625 726.69875,307.72375 726.59875,308.055 L726.59875,308.055 Z M717.875,314.75 C716.72625,314.75 715.77125,313.81 715.70125,312.60875 C715.68,312.265 715.9425,311.96875 716.28875,311.94875 C716.63,311.92375 716.92875,312.19125 716.94875,312.53625 C716.98,313.07625 717.3875,313.5 717.875,313.5 C718.385,313.5 718.8,313.03625 718.8,312.46625 C718.8,311.72625 718.36,311.7875 717.7025,311.6025 C716.34,311.34625 715.6975,310.655 715.6975,309.5325 C715.6975,308.2725 716.67375,307.25 717.875,307.25 C719.02125,307.25 719.97625,308.18875 720.04625,309.38875 C720.0675,309.7325 719.805,310.02875 719.45875,310.04875 C719.11625,310.085 718.81875,309.80625 718.79875,309.46125 C718.7675,308.9225 718.36125,308.5 717.875,308.5 C717.36375,308.5 716.9475,308.9625 716.9475,309.53125 C716.9475,310.08875 717.23375,310.24 717.8375,310.3525 C719.14875,310.5975 720.05125,311.09625 720.05125,312.465 C720.05,313.72625 719.075,314.75 717.875,314.75 L717.875,314.75 Z M712.1375,313.5 C712.51625,313.5 712.9375,313.41875 713.1475,312.4425 C713.22125,312.10375 713.56,311.9 713.89125,311.9625 C714.2275,312.03625 714.4425,312.3675 714.37125,312.70625 C714.005,314.39625 712.955,314.75 712.1375,314.75 C709.75,314.75 709.75,312.2175 709.75,311 C709.75,309.7825 709.75,307.24875 712.1375,307.24875 C712.955,307.24875 714.00625,307.6025 714.37,309.2925 C714.4425,309.63125 714.2275,309.9625 713.89,310.03625 C713.54875,310.10375 713.22,309.89375 713.14625,309.55625 C712.9375,308.58125 712.515,308.49875 712.13625,308.49875 C711.4925,308.49875 711,308.6825 711,311 C711,313.31625 711.4925,313.5 712.1375,313.5 L712.1375,313.5 Z M730.8175,298.68375 L723.3175,291.18375 C723.2,291.06625 723.04125,291 722.875,291 L706.625,291 C706.28125,291 706,291.28 706,291.625 L706,320.375 C706,320.72 706.28125,321 706.625,321 L730.375,321 C730.72,321 731,320.72 731,320.375 L731,299.125 C731,298.95875 730.93375,298.8 730.8175,298.68375 L730.8175,298.68375 Z" id="Page-1"></path>
        </g>
    </g>
</svg>