<?xml version="1.0" encoding="UTF-8"?>
<svg width="24px" height="29px" viewBox="0 0 24 29" version="1.1" xmlns="http://www.w3.org/2000/svg" xmlns:xlink="http://www.w3.org/1999/xlink">
    <!-- Generator: Sketch 46.2 (44496) - http://www.bohemiancoding.com/sketch -->
    <title>syncmethod_csvicon</title>
    <desc>Created with Sketch.</desc>
    <defs></defs>
    <g id="Styleguide" stroke="none" stroke-width="1" fill="none" fill-rule="evenodd">
        <g id="Sync-Method" transform="translate(-976.000000, -351.000000)" fill="#FFFFFF">
            <g id="syncmethod_csvicon" transform="translate(975.000000, 350.000000)">
                <g id="Page-1" transform="translate(1.000000, 1.000000)">
                    <polygon id="Fill-1" points="5.33333333 24 9.33333333 24 9.33333333 21.6 5.33333333 21.6"></polygon>
                    <polygon id="Fill-2" points="10.6666667 24 18.6666667 24 18.6666667 21.6 10.6666667 21.6"></polygon>
                    <polygon id="Fill-3" points="10.6666667 16.8 18.6666667 16.8 18.6666667 14.4 10.6666667 14.4"></polygon>
                    <polygon id="Fill-4" points="10.6666667 20.4 18.6666667 20.4 18.6666667 18 10.6666667 18"></polygon>
                    <polygon id="Fill-5" points="5.33333333 16.8 9.33333333 16.8 9.33333333 14.4 5.33333333 14.4"></polygon>
                    <polygon id="Fill-6" points="5.33333333 20.4 9.33333333 20.4 9.33333333 18 5.33333333 18"></polygon>
                    <polygon id="Fill-7" points="10.6666667 13.2 18.6666667 13.2 18.6666667 10.8 10.6666667 10.8"></polygon>
                    <polygon id="Fill-8" points="5.33333333 13.2 9.33333333 13.2 9.33333333 10.8 5.33333333 10.8"></polygon>
                    <path d="M14.4,8.64 L14.4,0.96 L22.08,8.64 L14.4,8.64 Z M20.16,24.3692308 C20.16,24.6941538 19.85536,24.96 19.48,24.96 L4.52,24.96 C4.14464,24.96 3.84,24.6941538 3.84,24.3692308 L3.84,10.1907692 C3.84,9.86584615 4.14464,9.6 4.52,9.6 L19.48,9.6 C19.85536,9.6 20.16,9.86584615 20.16,10.1907692 L20.16,24.3692308 Z M24,7.8 C24,7.6404 23.9293333,7.488 23.8053333,7.3764 L15.8053333,0.1764 C15.68,0.0636 15.5093333,0 15.3333333,0 L0.666666667,0 C0.298666667,0 0,0.2688 0,0.6 L0,28.2 C0,28.5312 0.298666667,28.8 0.666666667,28.8 L23.3333333,28.8 C23.7013333,28.8 24,28.5312 24,28.2 L24,7.8 Z" id="Fill-9"></path>
                </g>
            </g>
        </g>
    </g>
</svg>