<?xml version="1.0" encoding="UTF-8"?>
<svg width="65px" height="64px" viewBox="0 0 65 64" version="1.1" xmlns="http://www.w3.org/2000/svg" xmlns:xlink="http://www.w3.org/1999/xlink">
    <!-- Generator: Sketch 46.2 (44496) - http://www.bohemiancoding.com/sketch -->
    <title>Page 1</title>
    <desc>Created with Sketch.</desc>
    <defs>
        <polygon id="path-1" points="24.1923077 0.99936 24.1923077 24.04 0.999355769 24.04 0.999355769 0.99936 24.1923077 0.99936"></polygon>
        <polygon id="path-3" points="0.322167248 0.9728 20.1135925 0.9728 20.1135925 12.281344 0.322167248 12.281344 0.322167248 0.9728"></polygon>
        <polygon id="path-5" points="24.7692308 0.9808 24.7692308 24.6 0.99325 24.6 0.99325 0.9808"></polygon>
    </defs>
    <g id="Styleguide" stroke="none" stroke-width="1" fill="none" fill-rule="evenodd">
        <g id="Login" transform="translate(-275.000000, -316.000000)">
            <g id="Page-1" transform="translate(275.000000, 316.000000)">
                <polygon id="Fill-1" fill="#FFFFFF" points="3 54 62 54 62 49 3 49"></polygon>
                <g id="Group-17">
                    <path d="M5.15384615,43.52 L5.15384615,57.6 C5.15384615,58.304 5.73107692,58.88 6.44230769,58.88 L59.2692308,58.88 L59.2692308,43.52 L5.15384615,43.52 Z M61.8461538,64 L6.44230769,64 C2.89130769,64 0,61.13024 0,57.6 L0,40.96 C0,39.54432 1.15446154,38.4 2.57692308,38.4 L61.8461538,38.4 C63.2711923,38.4 64.4230769,39.54432 64.4230769,40.96 L64.4230769,61.44 C64.4230769,62.85568 63.2711923,64 61.8461538,64 L61.8461538,64 Z" id="Fill-2" fill="#FFFFFF"></path>
                    <g id="Group-6" transform="translate(40.230769, 19.480000)">
                        <mask id="mask-2" fill="white">
                            <use xlink:href="#path-1"></use>
                        </mask>
                        <g id="Clip-5"></g>
                        <path d="M21.6153846,24.04 C20.9556923,24.04 20.296,23.78912 19.7935,23.28992 L1.75503846,5.36992 C0.747461538,4.36896 0.747461538,2.75104 1.75503846,1.75008 C2.76261538,0.74912 4.39123077,0.74912 5.39880769,1.75008 L23.4372692,19.67008 C24.4448462,20.67104 24.4448462,22.28896 23.4372692,23.28992 C22.9347692,23.78912 22.2750769,24.04 21.6153846,24.04" id="Fill-4" fill="#FFFFFF" mask="url(#mask-2)"></path>
                    </g>
                    <path d="M33.5,11.52 C29.2377692,11.52 25.7692308,14.96576 25.7692308,19.2 C25.7692308,23.43424 29.2377692,26.88 33.5,26.88 C37.7622308,26.88 41.2307692,23.43424 41.2307692,19.2 C41.2307692,14.96576 37.7622308,11.52 33.5,11.52 M33.5,32 C26.3954231,32 20.6153846,26.25792 20.6153846,19.2 C20.6153846,12.14208 26.3954231,6.4 33.5,6.4 C40.6045769,6.4 46.3846154,12.14208 46.3846154,19.2 C46.3846154,26.25792 40.6045769,32 33.5,32" id="Fill-7" fill="#FFFFFF"></path>
                    <g id="Group-11" transform="translate(34.500000, 0.000000)">
                        <mask id="mask-4" fill="white">
                            <use xlink:href="#path-3"></use>
                        </mask>
                        <g id="Clip-10"></g>
                        <path d="M2.90068846,12.281344 C2.57599615,12.281344 2.24357308,12.219904 1.92661154,12.089344 C0.607226923,11.554304 -0.0241192308,10.059264 0.514457692,8.751104 C3.33876538,1.887744 10.9097654,-0.854016 18.5116885,2.230784 C19.8284962,2.765824 20.4598423,4.258304 19.9212654,5.566464 C19.3826885,6.877184 17.8803423,7.506944 16.5635346,6.969344 C12.4043808,5.284864 7.30465,5.778944 5.28691923,10.689024 C4.87976538,11.679744 3.91599615,12.281344 2.90068846,12.281344" id="Fill-9" fill="#FFFFFF" mask="url(#mask-4)"></path>
                    </g>
                    <path d="M2.57692308,43.52 C1.15446154,43.52 0,42.37568 0,40.96 C0,25.93792 10.7174231,12.77696 25.4831923,9.66144 C26.8721538,9.36448 28.2405,10.25024 28.5368462,11.63264 C28.8331923,13.01504 27.9441538,14.3744 26.5526154,14.6688 C14.1524615,17.28512 5.15384615,28.34176 5.15384615,40.96 C5.15384615,42.37568 3.99938462,43.52 2.57692308,43.52" id="Fill-12" fill="#FFFFFF"></path>
                    <g id="Group-16" transform="translate(39.653846, 18.920000)">
                        <mask id="mask-6" fill="white">
                            <use xlink:href="#path-5"></use>
                        </mask>
                        <g id="Clip-15"></g>
                        <path d="M22.1923077,24.6 C21.5326154,24.6 20.8729231,24.34912 20.3704231,23.84992 L1.747,5.35136 C0.742,4.3504 0.742,2.73248 1.747,1.73152 C2.75457692,0.73056 4.38576923,0.73056 5.39076923,1.73152 L24.0141923,20.23008 C25.0217692,21.23104 25.0217692,22.84896 24.0141923,23.84992 C23.5116923,24.34912 22.852,24.6 22.1923077,24.6" id="Fill-14" fill="#FFFFFF" mask="url(#mask-6)"></path>
                    </g>
                </g>
            </g>
        </g>
    </g>
</svg>