<?xml version="1.0" encoding="UTF-8"?>
<svg width="30px" height="30px" viewBox="0 0 30 30" version="1.1" xmlns="http://www.w3.org/2000/svg" xmlns:xlink="http://www.w3.org/1999/xlink">
    <!-- Generator: Sketch 46.2 (44496) - http://www.bohemiancoding.com/sketch -->
    <title>syncmethod_qbicon</title>
    <desc>Created with Sketch.</desc>
    <defs>
        <polygon id="path-1" points="29.1491737 29.1491174 29.1491737 -7.10542736e-15 5.62725361e-05 -7.10542736e-15 5.62725361e-05 29.1491174"></polygon>
    </defs>
    <g id="Styleguide" stroke="none" stroke-width="1" fill="none" fill-rule="evenodd">
        <g id="Sync-Method" transform="translate(-301.000000, -351.000000)">
            <g id="syncmethod_qbicon" transform="translate(300.000000, 350.000000)">
                <g id="Page-1" transform="translate(1.000000, 1.000000)">
                    <mask id="mask-2" fill="white">
                        <use xlink:href="#path-1"></use>
                    </mask>
                    <g id="Clip-2"></g>
                    <path d="M19.4326511,20.2423004 L15.3844049,20.2423004 L15.3844049,5.02001667 C16.5503719,5.02001667 17.4895605,5.9592053 17.4895605,7.12517224 L17.4895605,18.1371448 L19.4326511,18.1371448 C21.4083799,18.1371448 22.9952654,16.5502593 22.9952654,14.5745306 C22.9952654,12.5988018 21.4083799,11.0119163 19.4326511,11.0119163 L18.6234521,11.0119163 L18.6234521,8.90619801 L19.4326511,8.90619801 C22.5417088,8.90619801 25.100421,11.4649102 25.100421,14.5745306 C25.100421,17.7162263 22.5743468,20.2423004 19.4326511,20.2423004 L19.4326511,20.2423004 Z M13.7648813,24.1290445 C12.5989144,24.1290445 11.6597257,23.1898558 11.6597257,22.0238889 L11.6597257,11.0119163 L9.71607235,11.0119163 C7.74090633,11.0119163 6.15345809,12.5988018 6.15345809,14.5745306 C6.15345809,16.5502593 7.74090633,18.1371448 9.71607235,18.1371448 L10.5263969,18.1371448 L10.5263969,20.2423004 L9.71607235,20.2423004 C6.57437666,20.2423004 4.04830252,17.7162263 4.04830252,14.5745306 C4.04830252,11.4649102 6.57437666,8.90619801 9.71607235,8.90619801 L13.7648813,8.90619801 L13.7648813,24.1290445 Z M14.5746431,-5.62725361e-05 C6.52541955,-5.62725361e-05 5.62725361e-05,6.52530701 5.62725361e-05,14.5745306 C5.62725361e-05,22.6237541 6.52541955,29.1491174 14.5746431,29.1491174 C22.6238667,29.1491174 29.14923,22.6237541 29.14923,14.5745306 C29.14923,6.52530701 22.6238667,-5.62725361e-05 14.5746431,-5.62725361e-05 L14.5746431,-5.62725361e-05 Z" id="Fill-1" fill="#FFFFFF" mask="url(#mask-2)"></path>
                </g>
            </g>
        </g>
    </g>
</svg>