<?xml version="1.0" encoding="UTF-8"?>
<svg width="20px" height="20px" viewBox="0 0 20 20" version="1.1" xmlns="http://www.w3.org/2000/svg" xmlns:xlink="http://www.w3.org/1999/xlink">
    <!-- Generator: Sketch 46.2 (44496) - http://www.bohemiancoding.com/sketch -->
    <title>Page 1</title>
    <desc>Created with Sketch.</desc>
    <defs>
        <polygon id="path-1" points="0.000571428571 19.4167143 19.4162857 19.4167143 19.4162857 -0.000142857143 0.000571428571 -0.000142857143"></polygon>
    </defs>
    <g id="Demo-Screens" stroke="none" stroke-width="1" fill="none" fill-rule="evenodd">
        <g id="Admin-Borrower-Search" transform="translate(-344.000000, -441.000000)">
            <g id="Page-1" transform="translate(344.000000, 441.000000)">
                <mask id="mask-2" fill="white">
                    <use xlink:href="#path-1"></use>
                </mask>
                <g id="Clip-2"></g>
                <path d="M3.69628571,10.7755714 C4.66771429,11.747 5.84771429,12.2327143 7.23628571,12.2327143 C8.62342857,12.2327143 9.80342857,11.747 10.7762857,10.7755714 C11.7462857,9.80414286 12.2334286,8.62414286 12.2334286,7.23557143 C12.2334286,5.84842857 11.7462857,4.66842857 10.7762857,3.69557143 C9.80342857,2.72557143 8.62342857,2.23842857 7.23628571,2.23842857 C5.84771429,2.23842857 4.66771429,2.72557143 3.69628571,3.69557143 C2.72342857,4.66842857 2.23771429,5.84842857 2.23771429,7.23557143 C2.23771429,8.62414286 2.72342857,9.80414286 3.69628571,10.7755714 L3.69628571,10.7755714 Z M13.8991429,12.2327143 L19.4162857,17.7512857 L17.7505714,19.417 L12.2334286,13.8984286 L12.2334286,13.0141429 L11.9205714,12.7012857 C10.6005714,13.847 9.04057143,14.4198571 7.23628571,14.4198571 C5.222,14.4198571 3.51342857,13.7255714 2.10771429,12.337 C0.703428571,10.9498571 0.000571428571,9.24842857 0.000571428571,7.23557143 C0.000571428571,5.22414286 0.703428571,3.51414286 2.10771429,2.10842857 C3.51342857,0.702714286 5.222,-0.000142857143 7.23628571,-0.000142857143 C9.24771429,-0.000142857143 10.9491429,0.702714286 12.3377143,2.10842857 C13.7248571,3.51414286 14.4191429,5.22414286 14.4191429,7.23557143 C14.4191429,9.04128571 13.8462857,10.6027143 12.702,11.9212857 L13.0134286,12.2327143 L13.8991429,12.2327143 Z" id="Fill-1" fill="#0085CA" mask="url(#mask-2)"></path>
            </g>
        </g>
    </g>
</svg>